<?xml version="1.0" encoding="utf-8"?>
<svg xmlns="http://www.w3.org/2000/svg" viewBox="0 0 50 50" fill="#000000"><path d="M 49.207031 15.09375 L 46.105469 11.992188 C 45.746094 11.632813 45.171875 11.601563 44.773438 11.917969 C 43.878906 12.636719 42.878906 13 41.800781 13 C 39.207031 13 37.101563 10.890625 37.101563 8.300781 C 37.101563 7.222656 37.464844 6.222656 38.179688 5.324219 C 38.5 4.925781 38.46875 4.351563 38.109375 3.992188 L 35.007813 0.894531 C 33.953125 -0.164063 32.046875 -0.160156 30.996094 0.890625 L 25.632813 6.21875 L 27.007813 7.59375 C 27.398438 7.984375 27.398438 8.617188 27.007813 9.007813 C 26.8125 9.203125 26.554688 9.300781 26.300781 9.300781 C 26.042969 9.300781 25.789063 9.203125 25.59375 9.007813 L 24.214844 7.628906 L 0.792969 30.894531 C 0.265625 31.421875 -0.0234375 32.132813 -0.0234375 32.898438 C -0.0234375 33.667969 0.265625 34.378906 0.792969 34.90625 L 3.894531 38.007813 C 4.253906 38.367188 4.824219 38.402344 5.226563 38.082031 C 6.175781 37.320313 7.269531 36.898438 8.300781 36.898438 C 10.890625 36.898438 13 39.007813 13 41.597656 C 13 42.734375 12.59375 43.8125 11.855469 44.628906 C 11.5 45.027344 11.515625 45.628906 11.894531 46.007813 L 14.992188 49.105469 C 15.519531 49.632813 16.234375 49.925781 17 49.925781 C 17.765625 49.925781 18.480469 49.632813 19.007813 49.105469 L 42.351563 25.761719 L 40.992188 24.40625 C 40.601563 24.015625 40.601563 23.382813 40.992188 22.992188 C 41.386719 22.601563 42.015625 22.601563 42.40625 22.992188 L 43.765625 24.347656 L 49.0625 19.050781 C 49.613281 18.609375 49.957031 17.953125 50.007813 17.234375 C 50.0625 16.4375 49.769531 15.65625 49.207031 15.09375 Z M 31.210938 13.210938 C 31.015625 13.40625 30.761719 13.503906 30.503906 13.503906 C 30.246094 13.503906 29.992188 13.40625 29.796875 13.210938 L 28.394531 11.808594 C 28.003906 11.417969 28.003906 10.785156 28.394531 10.394531 C 28.785156 10.003906 29.414063 10.003906 29.808594 10.394531 L 31.210938 11.796875 C 31.601563 12.1875 31.601563 12.820313 31.210938 13.210938 Z M 35.421875 17.421875 C 35.226563 17.617188 34.972656 17.714844 34.714844 17.714844 C 34.460938 17.714844 34.203125 17.617188 34.007813 17.421875 L 32.605469 16.019531 C 32.214844 15.628906 32.214844 14.992188 32.605469 14.605469 C 32.996094 14.214844 33.628906 14.214844 34.019531 14.605469 L 35.421875 16.007813 C 35.8125 16.398438 35.8125 17.03125 35.421875 17.421875 Z M 39.632813 21.632813 C 39.4375 21.828125 39.183594 21.925781 38.925781 21.925781 C 38.671875 21.925781 38.414063 21.828125 38.21875 21.632813 L 36.816406 20.230469 C 36.425781 19.839844 36.425781 19.207031 36.816406 18.816406 C 37.207031 18.425781 37.839844 18.425781 38.230469 18.816406 L 39.632813 20.21875 C 40.023438 20.609375 40.023438 21.242188 39.632813 21.632813 Z" fill="#000000"/></svg>
