<?xml version="1.0" encoding="utf-8"?>
<svg xmlns="http://www.w3.org/2000/svg" viewBox="0 0 50 50" fill="#000000"><path d="M 16 2 C 13.199219 2 11 4.199219 11 7 L 11 43 C 11 45.800781 13.199219 48 16 48 L 34 48 C 36.800781 48 39 45.800781 39 43 L 39 7 C 39 4.199219 36.800781 2 34 2 Z M 16 4 L 34 4 C 35.699219 4 37 5.300781 37 7 L 37 38 L 13 38 L 13 7 C 13 5.300781 14.300781 4 16 4 Z M 17.8125 11 C 17.261719 11.050781 16.855469 11.542969 16.90625 12.09375 C 16.957031 12.644531 17.449219 13.050781 18 13 L 32 13 C 32.359375 13.003906 32.695313 12.816406 32.878906 12.503906 C 33.058594 12.191406 33.058594 11.808594 32.878906 11.496094 C 32.695313 11.183594 32.359375 10.996094 32 11 L 18 11 C 17.96875 11 17.9375 11 17.90625 11 C 17.875 11 17.84375 11 17.8125 11 Z M 17.8125 16 C 17.261719 16.050781 16.855469 16.542969 16.90625 17.09375 C 16.957031 17.644531 17.449219 18.050781 18 18 L 29 18 C 29.359375 18.003906 29.695313 17.816406 29.878906 17.503906 C 30.058594 17.191406 30.058594 16.808594 29.878906 16.496094 C 29.695313 16.183594 29.359375 15.996094 29 16 L 18 16 C 17.96875 16 17.9375 16 17.90625 16 C 17.875 16 17.84375 16 17.8125 16 Z M 17.8125 21 C 17.261719 21.050781 16.855469 21.542969 16.90625 22.09375 C 16.957031 22.644531 17.449219 23.050781 18 23 L 32 23 C 32.359375 23.003906 32.695313 22.816406 32.878906 22.503906 C 33.058594 22.191406 33.058594 21.808594 32.878906 21.496094 C 32.695313 21.183594 32.359375 20.996094 32 21 L 18 21 C 17.96875 21 17.9375 21 17.90625 21 C 17.875 21 17.84375 21 17.8125 21 Z M 17.8125 26 C 17.261719 26.050781 16.855469 26.542969 16.90625 27.09375 C 16.957031 27.644531 17.449219 28.050781 18 28 L 29 28 C 29.359375 28.003906 29.695313 27.816406 29.878906 27.503906 C 30.058594 27.191406 30.058594 26.808594 29.878906 26.496094 C 29.695313 26.183594 29.359375 25.996094 29 26 L 18 26 C 17.96875 26 17.9375 26 17.90625 26 C 17.875 26 17.84375 26 17.8125 26 Z M 17.8125 31 C 17.261719 31.050781 16.855469 31.542969 16.90625 32.09375 C 16.957031 32.644531 17.449219 33.050781 18 33 L 32 33 C 32.359375 33.003906 32.695313 32.816406 32.878906 32.503906 C 33.058594 32.191406 33.058594 31.808594 32.878906 31.496094 C 32.695313 31.183594 32.359375 30.996094 32 31 L 18 31 C 17.96875 31 17.9375 31 17.90625 31 C 17.875 31 17.84375 31 17.8125 31 Z M 25 41 C 26.101563 41 27 41.898438 27 43 C 27 44.101563 26.101563 45 25 45 C 23.898438 45 23 44.101563 23 43 C 23 41.898438 23.898438 41 25 41 Z" fill="#000000"/></svg>
