<?xml version="1.0" encoding="utf-8"?>
<svg xmlns="http://www.w3.org/2000/svg" viewBox="0 0 24 24" fill="#000000"><path d="M 12 2 C 6.4889971 2 2 6.4889971 2 12 C 2 17.511003 6.4889971 22 12 22 C 15.271388 22 18.174066 20.411062 20 17.972656 L 20 22 L 22 22 L 22 12 C 22 6.4889971 17.511003 2 12 2 z M 12 5 C 13.105 5 14 5.895 14 7 C 14 8.105 13.105 9 12 9 C 10.895 9 10 8.105 10 7 C 10 5.895 10.895 5 12 5 z M 7 10 C 8.105 10 9 10.895 9 12 C 9 13.105 8.105 14 7 14 C 5.895 14 5 13.105 5 12 C 5 10.895 5.895 10 7 10 z M 17 10 C 18.105 10 19 10.895 19 12 C 19 13.105 18.105 14 17 14 C 15.895 14 15 13.105 15 12 C 15 10.895 15.895 10 17 10 z M 12 11 C 12.552 11 13 11.448 13 12 C 13 12.552 12.552 13 12 13 C 11.448 13 11 12.552 11 12 C 11 11.448 11.448 11 12 11 z M 12 15 C 13.105 15 14 15.895 14 17 C 14 18.105 13.105 19 12 19 C 10.895 19 10 18.105 10 17 C 10 15.895 10.895 15 12 15 z" fill="#000000"/></svg>
