<?xml version="1.0" encoding="utf-8"?>
<svg xmlns="http://www.w3.org/2000/svg" viewBox="0 0 26 26" fill="#ffffff"><path d="M 13 0 C 9.699219 0 7 2.101563 7 6 C 7 8.609375 8.214844 11.3125 10 12.8125 L 10 14.1875 C 10 14.789063 9.59375 15.304688 9.09375 15.40625 C 5.195313 16.605469 2 19.1875 2 20.6875 L 2 22.5 C 2 24.398438 6.898438 26 13 26 C 19.101563 26 24 24.398438 24 22.5 L 24 20.6875 C 24 19.289063 20.90625 16.605469 16.90625 15.40625 C 16.40625 15.304688 16 14.6875 16 14.1875 L 16 12.8125 C 17.785156 11.3125 19 8.609375 19 6 C 19 2.101563 16.300781 0 13 0 Z" fill="#ffffff"/></svg>
